<svg xmlns="http://www.w3.org/2000/svg" viewBox="0 0 1200 800" preserveAspectRatio="xMidYMid slice">
  <defs>
    <linearGradient id="g" x1="0" x2="1" y1="0" y2="1">
      <stop offset="0" stop-color="#1a1630"/>
      <stop offset="1" stop-color="#090914"/>
    </linearGradient>
  </defs>
  <rect width="1200" height="800" fill="url(#g)"/>
  <g stroke="#3b375a" stroke-opacity="0.35" fill="none">
    <path d="M-50,40 C150,80 250,0 450,40 S750,80 950,40 1250,0 1450,40" />
    <path d="M-50,80 C150,120 250,40 450,80 S750,120 950,80 1250,40 1450,80" />
    <path d="M-50,120 C150,160 250,80 450,120 S750,160 950,120 1250,80 1450,120" />
    <path d="M-50,160 C150,200 250,120 450,160 S750,200 950,160 1250,120 1450,160" />
    <path d="M-50,200 C150,240 250,160 450,200 S750,240 950,200 1250,160 1450,200" />
    <path d="M-50,240 C150,280 250,200 450,240 S750,280 950,240 1250,200 1450,240" />
    <path d="M-50,280 C150,320 250,240 450,280 S750,320 950,280 1250,240 1450,280" />
    <path d="M-50,320 C150,360 250,280 450,320 S750,360 950,320 1250,280 1450,320" />
    <path d="M-50,360 C150,400 250,320 450,360 S750,400 950,360 1250,320 1450,360" />
    <path d="M-50,400 C150,440 250,360 450,400 S750,440 950,400 1250,360 1450,400" />
    <path d="M-50,440 C150,480 250,400 450,440 S750,480 950,440 1250,400 1450,440" />
    <path d="M-50,480 C150,520 250,440 450,480 S750,520 950,480 1250,440 1450,480" />
    <path d="M-50,520 C150,560 250,480 450,520 S750,560 950,520 1250,480 1450,520" />
    <path d="M-50,560 C150,600 250,520 450,560 S750,600 950,560 1250,520 1450,560" />
    <path d="M-50,600 C150,640 250,560 450,600 S750,640 950,600 1250,560 1450,600" />
    <path d="M-50,640 C150,680 250,600 450,640 S750,680 950,640 1250,600 1450,640" />
    <path d="M-50,680 C150,720 250,640 450,680 S750,720 950,680 1250,640 1450,680" />
    <path d="M-50,720 C150,760 250,680 450,720 S750,760 950,720 1250,680 1450,720" />
  </g>
</svg>
